<svg width="32" height="40" viewBox="0 0 32 40" fill="none" xmlns="http://www.w3.org/2000/svg">
  <!-- Pin body -->
  <path d="M16 0C7.163 0 0 7.163 0 16C0 24.837 16 40 16 40S32 24.837 32 16C32 7.163 24.837 0 16 0Z" fill="#2196F3"/>
  <!-- White border -->
  <path d="M16 2C8.268 2 2 8.268 2 16C2 22.627 16 36.314 16 36.314S30 22.627 30 16C30 8.268 23.732 2 16 2Z" fill="#2196F3" stroke="#FFFFFF" stroke-width="2"/>
  <!-- Car icon -->
  <g transform="translate(8, 6)">
    <path d="M14 8.5L13.5 6.5C13.1 5.1 11.8 4 10.4 4H5.6C4.2 4 2.9 5.1 2.5 6.5L2 8.5H1C0.4 8.5 0 8.9 0 9.5S0.4 10.5 1 10.5H2V13.5C2 14.1 2.4 14.5 3 14.5H4C4.6 14.5 5 14.1 5 13.5V12.5H11V13.5C11 14.1 11.4 14.5 12 14.5H13C13.6 14.5 14 14.1 14 13.5V10.5H15C15.6 10.5 16 10.1 16 9.5S15.6 8.5 15 8.5H14ZM4.5 11C3.9 11 3.5 10.6 3.5 10S3.9 9 4.5 9S5.5 9.4 5.5 10S5.1 11 4.5 11ZM11.5 11C10.9 11 10.5 10.6 10.5 10S10.9 9 11.5 9S12.5 9.4 12.5 10S12.1 11 11.5 11ZM4 7.5H12L12.3 6.5C12.4 6.2 12.1 6 11.8 6H4.2C3.9 6 3.6 6.2 3.7 6.5L4 7.5Z" fill="#FFFFFF"/>
  </g>
  <!-- Shadow -->
  <ellipse cx="16" cy="38" rx="8" ry="2" fill="rgba(0,0,0,0.2)"/>
</svg>